<svg width="55" height="56" viewBox="0 0 55 56" fill="none" xmlns="http://www.w3.org/2000/svg">
<path d="M18.647 25.8513C18.2259 25.494 17.5948 25.5457 17.2375 25.9668C16.8802 26.388 16.9319 27.019 17.353 27.3763L18.647 25.8513ZM27.8167 34.9436L27.1697 35.7061C27.5429 36.0227 28.0905 36.0227 28.4637 35.7061L27.8167 34.9436ZM38.2803 27.3763C38.7014 27.019 38.7532 26.388 38.3958 25.9668C38.0385 25.5457 37.4074 25.494 36.9863 25.8513L38.2803 27.3763ZM17.353 27.3763L27.1697 35.7061L28.4637 34.1811L18.647 25.8513L17.353 27.3763ZM28.4637 35.7061L38.2803 27.3763L36.9863 25.8513L27.1697 34.1811L28.4637 35.7061Z" fill="#F58317"/>
<rect x="54.5" y="55.4214" width="54" height="53.9408" rx="4.5" transform="rotate(-180 54.5 55.4214)" stroke="#F58317" stroke-linecap="round" stroke-dasharray="5 5"/>
</svg>
