<svg xmlns="http://www.w3.org/2000/svg" width="49" height="48" viewBox="0 0 49 48" fill="none">
<path d="M47.2927 24C47.2927 36.6968 36.9355 47 24.1464 47C11.3572 47 1 36.6968 1 24C1 11.3032 11.3572 1 24.1464 1C36.9355 1 47.2927 11.3032 47.2927 24Z" stroke="#F69115" stroke-width="2"/>
<path d="M28.2234 17.7615C28.6261 17.3836 28.6463 16.7507 28.2684 16.348C27.8905 15.9452 27.2576 15.9251 26.8549 16.303L28.2234 17.7615ZM19.4395 24.6322L18.7552 23.903C18.5537 24.092 18.4395 24.356 18.4395 24.6322C18.4395 24.9085 18.5537 25.1724 18.7552 25.3615L19.4395 24.6322ZM26.8549 32.9615C27.2576 33.3394 27.8905 33.3192 28.2684 32.9165C28.6463 32.5137 28.6261 31.8809 28.2234 31.503L26.8549 32.9615ZM26.8549 16.303L18.7552 23.903L20.1237 25.3615L28.2234 17.7615L26.8549 16.303ZM18.7552 25.3615L26.8549 32.9615L28.2234 31.503L20.1237 23.903L18.7552 25.3615Z" fill="#F69115"/>
</svg>