<svg xmlns="http://www.w3.org/2000/svg" width="49" height="48" viewBox="0 0 49 48" fill="none">
<path d="M1.70726 24C1.70726 11.3032 12.0645 1 24.8536 1C37.6428 1 48 11.3032 48 24C48 36.6968 37.6428 47 24.8536 47C12.0645 47 1.70726 36.6968 1.70726 24Z" stroke="#F69115" stroke-width="2"/>
<path d="M20.7776 31.7874C20.3748 32.1653 20.3547 32.7981 20.7326 33.2009C21.1105 33.6036 21.7434 33.6237 22.1461 33.2458L20.7776 31.7874ZM29.5615 24.9166L30.2458 25.6458C30.4472 25.4568 30.5615 25.1929 30.5615 24.9166C30.5615 24.6403 30.4472 24.3764 30.2458 24.1874L29.5615 24.9166ZM22.1461 16.5874C21.7434 16.2095 21.1105 16.2296 20.7326 16.6323C20.3547 17.0351 20.3748 17.6679 20.7776 18.0458L22.1461 16.5874ZM22.1461 33.2458L30.2458 25.6458L28.8773 24.1874L20.7776 31.7874L22.1461 33.2458ZM30.2458 24.1874L22.1461 16.5874L20.7776 18.0458L28.8773 25.6458L30.2458 24.1874Z" fill="#F69115"/>
</svg>