<svg width="46" height="45" viewBox="0 0 46 45" fill="none" xmlns="http://www.w3.org/2000/svg">
<ellipse cx="22.5714" cy="22.5" rx="22.5714" ry="22.5" fill="url(#paint0_linear)"/>
<path d="M36.0166 18.1055H32.7174L31.8005 15.8203C30.8581 13.4709 28.6093 11.9531 26.0705 11.9531H19.0721C16.5339 11.9531 14.2845 13.4709 13.3416 15.8203L12.4246 18.1055H9.12598C8.6956 18.1055 8.37984 18.5087 8.48454 18.9245L8.81518 20.2429C8.88847 20.5362 9.15298 20.7422 9.45661 20.7422H10.5626C9.82252 21.3865 9.34585 22.3231 9.34585 23.3789V26.0156C9.34585 26.9011 9.6853 27.7004 10.2275 28.3189V31.2891C10.2275 32.2597 11.0172 33.0469 11.9909 33.0469H13.7543C14.7281 33.0469 15.5177 32.2597 15.5177 31.2891V29.5312H29.6249V31.2891C29.6249 32.2597 30.4145 33.0469 31.3883 33.0469H33.1517C34.1254 33.0469 34.9151 32.2597 34.9151 31.2891V28.3189C35.4573 27.7009 35.7968 26.9017 35.7968 26.0156V23.3789C35.7968 22.3231 35.3201 21.3865 34.5806 20.7422H35.6865C35.9902 20.7422 36.2547 20.5362 36.328 20.2429L36.6586 18.9245C36.7628 18.5087 36.447 18.1055 36.0166 18.1055ZM16.616 17.126C17.0177 16.1252 17.9903 15.4688 19.0721 15.4688H26.0705C27.1523 15.4688 28.1249 16.1252 28.5266 17.126L29.6249 19.8633H15.5177L16.616 17.126ZM13.7543 26.0046C12.6963 26.0046 11.9909 25.3037 11.9909 24.2523C11.9909 23.2009 12.6963 22.5 13.7543 22.5C14.8124 22.5 16.3994 24.0771 16.3994 25.1285C16.3994 26.1799 14.8124 26.0046 13.7543 26.0046ZM31.3883 26.0046C30.3302 26.0046 28.7432 26.1799 28.7432 25.1285C28.7432 24.0771 30.3302 22.5 31.3883 22.5C32.4463 22.5 33.1517 23.2009 33.1517 24.2523C33.1517 25.3037 32.4463 26.0046 31.3883 26.0046Z" fill="white"/>
<defs>
<linearGradient id="paint0_linear" x1="22.5714" y1="0" x2="22.5714" y2="45" gradientUnits="userSpaceOnUse">
<stop stop-color="#F47E16"/>
<stop offset="1" stop-color="#F7B512"/>
</linearGradient>
</defs>
</svg>
