<svg width="141" height="60" viewBox="0 0 141 60" fill="none" xmlns="http://www.w3.org/2000/svg">
<path d="M121.624 42.3766L30.8798 47.6262C20.9437 48.201 11.8778 41.9791 8.84096 32.501C4.41334 18.6821 14.4575 4.47165 28.9618 4.0341L119.816 1.29333C131.411 0.943563 141 10.2476 141 21.8475C141 32.743 132.502 41.7474 121.624 42.3766Z" fill="url(#paint0_linear)"/>
<path d="M48.3438 35.8392H45.0977V31.6439H34.8086V35.8275H31.4805L31.293 28.8196H32.582C33.2773 28.2415 33.8125 27.3939 34.1875 26.2767C34.5703 25.1517 34.8281 23.761 34.9609 22.1048L35.4531 14.5814H46.6328V28.8196H48.625L48.3438 35.8392ZM36.6133 28.8196H43.1172V17.429H38.793L38.5 21.9173C38.2656 24.9251 37.6367 27.2259 36.6133 28.8196ZM60.9822 24.2493H54.2322V28.8196H62.1541V31.6439H50.7166V14.5814H62.1306V17.429H54.2322V21.4954H60.9822V24.2493ZM78.3433 31.6439H74.8277V24.3314H67.9722V31.6439H64.4566V14.5814H67.9722V21.4954H74.8277V14.5814H78.3433V31.6439ZM85.1809 20.7337H87.9231C89.9309 20.7337 91.5208 21.222 92.6927 22.1985C93.8723 23.1673 94.4622 24.4759 94.4622 26.1243C94.4622 27.7806 93.8763 29.1126 92.7044 30.1204C91.5403 31.1204 89.9895 31.6282 88.052 31.6439H81.6419V14.5814H85.1809V20.7337ZM85.1809 23.5696V28.8196H87.9817C88.8802 28.8196 89.595 28.5735 90.1263 28.0814C90.6653 27.5892 90.9348 26.929 90.9348 26.1009C90.9348 25.3275 90.677 24.7181 90.1614 24.2728C89.6536 23.8196 88.9544 23.5853 88.0638 23.5696H85.1809ZM114.384 16.4798L107.786 31.6439H104.212L110.821 17.3235H102.337V14.5814H114.384V16.4798Z" fill="white"/>
<defs>
<linearGradient id="paint0_linear" x1="-5" y1="-2.84193" x2="151.474" y2="42.6994" gradientUnits="userSpaceOnUse">
<stop stop-color="#F7B511"/>
<stop offset="1" stop-color="#F47816"/>
</linearGradient>
</defs>
</svg>
