<svg width="46" height="45" viewBox="0 0 46 45" fill="none" xmlns="http://www.w3.org/2000/svg">
<ellipse cx="22.5714" cy="22.5" rx="22.5714" ry="22.5" fill="url(#paint0_linear)"/>
<path d="M22.5676 11.918C22.6028 12.1246 23.2773 16.0709 23.2773 17.5782C23.2773 19.8765 22.0518 21.5157 20.2399 22.1748L20.8086 32.6382C20.8394 33.2402 20.3589 33.75 19.7506 33.75H16.9291C16.3252 33.75 15.8402 33.2446 15.8711 32.6382L16.4398 22.1748C14.6235 21.5157 13.4023 19.8721 13.4023 17.5782C13.4023 16.0665 14.0768 12.1246 14.1121 11.918C14.2532 11.0259 16.1091 11.0128 16.2238 11.9664V18.1714C16.2811 18.3208 16.8894 18.3121 16.9291 18.1714C16.9908 17.0596 17.2774 12.0543 17.2818 11.94C17.4273 11.0259 19.2524 11.0259 19.3935 11.94C19.4023 12.0587 19.6844 17.0596 19.7461 18.1714C19.7858 18.3121 20.3986 18.3208 20.4515 18.1714V11.9664C20.5661 11.0172 22.4265 11.0259 22.5676 11.918ZM27.8225 24.4732L27.1612 32.6074C27.1083 33.2227 27.5976 33.75 28.2148 33.75H30.6836C31.2699 33.75 31.7416 33.2798 31.7416 32.6953V12.3047C31.7416 11.7247 31.2699 11.2501 30.6836 11.2501C27.0466 11.2501 20.9232 19.0943 27.8225 24.4732Z" fill="white"/>
<defs>
<linearGradient id="paint0_linear" x1="22.5714" y1="0" x2="22.5714" y2="45" gradientUnits="userSpaceOnUse">
<stop stop-color="#F47E16"/>
<stop offset="1" stop-color="#F7B512"/>
</linearGradient>
</defs>
</svg>
