<svg width="30" height="22" viewBox="0 0 30 22" fill="none" xmlns="http://www.w3.org/2000/svg">
<path d="M4.5 9.57772C6.15469 9.57772 7.5 8.23385 7.5 6.58095C7.5 4.92804 6.15469 3.58417 4.5 3.58417C2.84531 3.58417 1.5 4.92804 1.5 6.58095C1.5 8.23385 2.84531 9.57772 4.5 9.57772ZM25.5 9.57772C27.1547 9.57772 28.5 8.23385 28.5 6.58095C28.5 4.92804 27.1547 3.58417 25.5 3.58417C23.8453 3.58417 22.5 4.92804 22.5 6.58095C22.5 8.23385 23.8453 9.57772 25.5 9.57772ZM27 11.0761H24C23.175 11.0761 22.4297 11.4086 21.8859 11.947C23.775 12.9819 25.1156 14.8502 25.4062 17.0697H28.5C29.3297 17.0697 30 16.4001 30 15.5713V14.0729C30 12.42 28.6547 11.0761 27 11.0761ZM15 11.0761C17.9016 11.0761 20.25 8.7302 20.25 5.83175C20.25 2.93331 17.9016 0.587402 15 0.587402C12.0984 0.587402 9.75 2.93331 9.75 5.83175C9.75 8.7302 12.0984 11.0761 15 11.0761ZM18.6 12.5745H18.2109C17.2359 13.0427 16.1531 13.3237 15 13.3237C13.8469 13.3237 12.7688 13.0427 11.7891 12.5745H11.4C8.41875 12.5745 6 14.9906 6 17.9687V19.3172C6 20.5581 7.00781 21.5648 8.25 21.5648H21.75C22.9922 21.5648 24 20.5581 24 19.3172V17.9687C24 14.9906 21.5812 12.5745 18.6 12.5745ZM8.11406 11.947C7.57031 11.4086 6.825 11.0761 6 11.0761H3C1.34531 11.0761 0 12.42 0 14.0729V15.5713C0 16.4001 0.670312 17.0697 1.5 17.0697H4.58906C4.88438 14.8502 6.225 12.9819 8.11406 11.947Z" fill="#A1A1A1"/>
</svg>
