<svg width="46" height="45" viewBox="0 0 46 45" fill="none" xmlns="http://www.w3.org/2000/svg">
<ellipse cx="22.5714" cy="22.5" rx="22.5714" ry="22.5" fill="url(#paint0_linear)"/>
<path d="M13.1152 25.5254L13.1152 31.9277C13.1152 32.5219 13.5983 33 14.1987 33L19.4353 33C19.7333 33 19.977 32.7587 19.977 32.4639L19.977 27.46C19.977 27.1651 20.2208 26.9238 20.5188 26.9238L23.7691 26.9238C24.067 26.9238 24.3108 27.1651 24.3108 27.46L24.3108 32.4639C24.3108 32.7587 24.5546 33 24.8525 33L30.0892 33C30.6896 33 31.1726 32.5219 31.1726 31.9277L31.1726 25.5254C31.1726 25.3646 31.1004 25.2127 30.974 25.1099L22.487 18.1938C22.2884 18.0329 21.9995 18.0329 21.7963 18.1938L13.3093 25.1099C13.1874 25.2127 13.1152 25.3646 13.1152 25.5254ZM9.34122 22.8045L13.1152 19.7262L13.1152 13.5384C13.1152 13.2435 13.359 13.0022 13.6569 13.0022L16.185 13.0022C16.4829 13.0022 16.7267 13.2435 16.7267 13.5384L16.7267 16.782L20.767 13.4892C21.5661 12.8369 22.7218 12.8369 23.5208 13.4892L34.9466 22.8045C35.1769 22.9922 35.2085 23.3317 35.0189 23.5596L33.8677 24.9446C33.6781 25.1725 33.335 25.2037 33.1048 25.0161L22.487 16.362C22.2884 16.2012 21.9995 16.2012 21.7963 16.362L11.1786 25.0161C10.9483 25.2037 10.6052 25.1725 10.4156 24.9446L9.26448 23.5596C9.07488 23.3273 9.11099 22.9922 9.34122 22.8045Z" fill="white"/>
<defs>
<linearGradient id="paint0_linear" x1="22.5714" y1="0" x2="22.5714" y2="45" gradientUnits="userSpaceOnUse">
<stop stop-color="#F47E16"/>
<stop offset="1" stop-color="#F7B512"/>
</linearGradient>
</defs>
</svg>
