<svg width="128" height="37" viewBox="0 0 128 37" fill="none" xmlns="http://www.w3.org/2000/svg">
<path d="M5.82009 5.43444L1.87074 7.81931C0.692868 8.52074 0 9.78332 0 11.2563V25.9163C0 27.3191 0.692868 28.6519 1.87074 29.3533L5.75081 31.668C6.51296 32.159 7.48298 31.5277 7.48298 30.6159V6.41645C7.48298 5.50458 6.58225 4.94344 5.82009 5.43444Z" fill="white"/>
<path d="M31.5275 11.258C31.5275 9.85513 30.8346 8.52241 29.6567 7.82097L17.6008 0.526074C16.4229 -0.175358 15.0372 -0.175358 13.8593 0.526074L11.9886 1.64837C11.6421 1.8588 11.365 2.27966 11.365 2.77066V15.5367C11.365 15.8874 11.7114 16.0979 11.9886 15.9576L13.79 15.2562C14.76 14.8353 15.8686 14.6249 17.0465 14.6249C19.1944 14.6249 20.8573 15.2562 22.1737 16.5889C23.4902 17.9216 24.1138 19.8856 24.1138 22.4108V30.4772C24.1138 31.4593 25.0838 32.0204 25.8459 31.5294L29.6567 29.2147C30.8346 28.5132 31.5275 27.1805 31.5275 25.7776" fill="white"/>
<path d="M20.161 22.9704C20.161 21.4272 19.8146 20.2348 19.1217 19.4632C18.4289 18.6916 17.4589 18.2708 16.1424 18.2708C14.6874 18.2708 13.5095 18.7618 12.6781 19.6736C11.8466 20.5855 11.4309 21.9182 11.4309 23.6718V34.3336C11.4309 34.8246 11.7081 35.2454 12.0545 35.526L13.4402 36.3677C14.8952 37.2094 16.6274 37.2094 18.0824 36.3677L19.5375 35.4559C19.9532 35.2454 20.161 34.7544 20.161 34.2634V22.9704Z" fill="white"/>
<path d="M103.376 11.4019C105.247 11.4019 106.702 11.963 107.81 13.0853C108.919 14.2076 109.473 15.8209 109.473 17.9953V26.2021C109.473 26.3424 109.335 26.5528 109.127 26.5528H106.286C106.148 26.5528 105.94 26.4125 105.94 26.2021V18.346C105.94 17.0133 105.663 16.0313 105.039 15.4C104.415 14.6986 103.584 14.418 102.475 14.418C101.228 14.418 100.189 14.8389 99.496 15.6105C98.7338 16.382 98.3874 17.5043 98.3874 18.9072V26.1319C98.3874 26.2722 98.2488 26.4827 98.041 26.4827H95.2002C95.0616 26.4827 94.8538 26.3424 94.8538 26.1319V12.8047C94.8538 12.6644 94.9231 12.5241 95.1309 12.454L97.6252 11.5421C97.9024 11.472 98.1795 11.6123 98.1795 11.8929V13.1554C98.1795 13.2957 98.3181 13.2957 98.3874 13.2256C98.9417 12.6644 99.5653 12.2436 100.327 11.8929C101.367 11.5421 102.337 11.4019 103.376 11.4019Z" fill="white"/>
<path d="M120.905 11.3968C122.776 11.3968 124.231 11.9579 125.34 13.0802C126.448 14.2025 127.003 15.8158 127.003 17.9902V26.197C127.003 26.3373 126.864 26.5477 126.656 26.5477H123.815C123.677 26.5477 123.469 26.4074 123.469 26.197V18.341C123.469 17.0082 123.192 16.0262 122.568 15.3949C121.945 14.6935 121.113 14.4129 120.005 14.4129C118.757 14.4129 117.718 14.8338 117.025 15.6054C116.263 16.377 115.917 17.4992 115.917 18.9021V26.1269C115.917 26.2672 115.778 26.4776 115.57 26.4776H112.729C112.591 26.4776 112.383 26.3373 112.383 26.1269V6.48675C112.383 6.34647 112.452 6.20618 112.66 6.13604L115.155 5.22417C115.432 5.15403 115.709 5.29432 115.709 5.57489V13.0802C115.709 13.2205 115.847 13.2205 115.917 13.1504C116.471 12.5892 117.095 12.1684 117.857 11.8176C118.827 11.5371 119.797 11.3968 120.905 11.3968Z" fill="white"/>
<path d="M93.1901 18.9055C93.1901 19.1159 93.1901 19.3965 93.1208 19.677C93.1208 19.8173 92.9822 19.9576 92.8436 19.9576H81.8963C81.6885 19.9576 81.6192 20.0979 81.6192 20.3083C81.827 21.2202 82.3813 21.9918 83.1435 22.623C83.9749 23.2543 85.0835 23.6051 86.3307 23.6051C87.855 23.6051 89.1022 23.1141 90.1415 22.2022C90.28 22.132 90.4186 22.132 90.5572 22.2022L92.0815 23.9558C92.1508 24.0259 92.1508 24.2363 92.0815 24.3065C91.4579 25.0079 90.6958 25.5691 89.7257 25.9198C88.6864 26.3406 87.5778 26.5511 86.3307 26.5511C84.7371 26.5511 83.2821 26.2004 82.0349 25.5691C80.7877 24.9378 79.8177 24.0259 79.1941 22.8335C78.5013 21.641 78.2241 20.3083 78.2241 18.8353C78.2241 17.3623 78.5706 16.0997 79.1941 14.9073C79.887 13.7149 80.7877 12.803 81.8963 12.1717C83.0742 11.5404 84.3214 11.1897 85.7764 11.1897C87.2314 11.1897 88.4786 11.5404 89.5872 12.1717C90.6958 12.803 91.5965 13.7149 92.2201 14.9073C92.8436 16.0296 93.1901 17.3623 93.1901 18.9055ZM85.7071 13.9954C84.5985 13.9954 83.6978 14.3461 82.8663 14.9774C82.1735 15.5386 81.7577 16.3102 81.5499 17.2922C81.4806 17.4324 81.6192 17.6429 81.827 17.6429H89.5179C89.6564 17.6429 89.795 17.5026 89.795 17.2922C89.5872 16.3803 89.1714 15.6087 88.4786 14.9774C87.7857 14.3461 86.8157 13.9954 85.7071 13.9954Z" fill="white"/>
<path d="M68.7994 11.2605C70.2544 11.2605 71.5016 11.6112 72.6102 12.2425C73.7188 12.8738 74.6195 13.7857 75.3123 14.9079C75.9359 16.0302 76.2824 17.363 76.2824 18.9061C76.2824 20.4493 75.9359 21.782 75.3123 22.9043C74.6888 24.0266 73.788 24.9384 72.6102 25.5697C71.5016 26.201 70.1851 26.5517 68.7994 26.5517C66.9286 26.5517 65.4736 25.9906 64.365 24.7981C64.2957 24.728 64.0879 24.7981 64.0879 24.9384V31.3916C64.0879 31.602 63.9493 31.8125 63.6722 31.8125C62.0093 31.8125 60.6235 30.4096 60.6235 28.7262V12.8036C60.6235 12.6634 60.6928 12.5231 60.9007 12.4529L63.395 11.5411C63.6722 11.4709 63.9493 11.6112 63.9493 11.8918V13.0842C63.9493 13.2245 64.0879 13.2245 64.1572 13.1544C64.7115 12.5932 65.335 12.1022 66.0279 11.8216C66.8594 11.4008 67.7601 11.2605 68.7994 11.2605ZM68.3837 23.5356C69.6308 23.5356 70.6701 23.1147 71.5016 22.273C72.333 21.4313 72.7487 20.309 72.7487 18.9061C72.7487 17.5032 72.333 16.381 71.5016 15.5392C70.6701 14.6975 69.6308 14.2767 68.3837 14.2767C67.5522 14.2767 66.7901 14.4871 66.1665 14.8378C65.4736 15.1885 64.9886 15.7497 64.5729 16.4511C64.1572 17.1525 64.0186 17.9943 64.0186 18.9061C64.0186 19.818 64.2264 20.6597 64.5729 21.3611C64.9886 22.0626 65.4736 22.6237 66.1665 23.0446C66.8594 23.3251 67.6215 23.5356 68.3837 23.5356Z" fill="white"/>
<path d="M50.9217 26.4805C49.4667 26.4805 48.0809 26.1298 46.9031 25.4985C45.7252 24.8672 44.7552 23.9554 44.0623 22.7629C43.3694 21.5705 43.0923 20.2378 43.0923 18.7648C43.0923 17.2917 43.4387 15.959 44.0623 14.8367C44.7552 13.7144 45.6559 12.8026 46.9031 12.1011C48.0809 11.4699 49.4667 11.1191 50.9217 11.1191C52.446 11.1191 53.7625 11.4699 54.9403 12.1011C56.1182 12.7324 57.0882 13.6443 57.7118 14.8367C58.4047 15.959 58.7511 17.2917 58.7511 18.7648C58.7511 20.2378 58.4047 21.5705 57.7118 22.7629C57.0189 23.8852 56.1182 24.7971 54.9403 25.4985C53.7625 26.1298 52.446 26.4805 50.9217 26.4805ZM50.9217 23.4644C52.1689 23.4644 53.2082 23.0435 54.0396 22.2018C54.871 21.3601 55.2868 20.2378 55.2868 18.8349C55.2868 17.432 54.871 16.3097 54.0396 15.468C53.2082 14.6263 52.1689 14.2054 50.9217 14.2054C49.6745 14.2054 48.6352 14.6263 47.8038 15.468C46.9723 16.3097 46.6259 17.432 46.6259 18.8349C46.6259 20.2378 47.0416 21.3601 47.8038 22.2018C48.6352 23.0435 49.6745 23.4644 50.9217 23.4644Z" fill="white"/>
</svg>
