<svg width="17" height="16" viewBox="0 0 17 16" fill="none" xmlns="http://www.w3.org/2000/svg">
<path d="M8.50013 8.57C10.9102 8.57 12.8656 6.65068 12.8656 4.285C12.8656 1.91932 10.9102 0 8.50013 0C6.09001 0 4.13464 1.91932 4.13464 4.285C4.13464 6.65068 6.09001 8.57 8.50013 8.57ZM12.3806 9.52223H10.7102C10.0371 9.82575 9.28834 9.99834 8.50013 9.99834C7.71191 9.99834 6.96614 9.82575 6.2901 9.52223H4.61969C2.47636 9.52223 0.739258 11.2273 0.739258 13.3311V13.8072C0.739258 14.5958 1.39105 15.2356 2.19442 15.2356H14.8058C15.6092 15.2356 16.261 14.5958 16.261 13.8072V13.3311C16.261 11.2273 14.5239 9.52223 12.3806 9.52223Z" fill="#AAB2C0"/>
</svg>
