<svg width="17" height="17" viewBox="0 0 17 17" fill="none" xmlns="http://www.w3.org/2000/svg">
<path d="M0.617567 0.802073L4.07062 0.0199066C4.44581 -0.0648281 4.83096 0.127454 4.98369 0.472911L6.57741 4.12302C6.71686 4.44241 6.62389 4.81719 6.34831 5.03555L4.33624 6.65203C5.53153 9.1517 7.61996 11.231 10.2197 12.427L11.8666 10.4521C12.0923 10.1816 12.4708 10.0903 12.7962 10.2272L16.5149 11.7915C16.8702 11.9447 17.0661 12.3227 16.9797 12.691L16.1829 16.0804C16.0999 16.4324 15.7811 16.6866 15.4059 16.6866C6.90279 16.6866 0 9.92409 0 1.56469C0 1.19967 0.255661 0.883549 0.617567 0.802073Z" fill="#AAB2C0"/>
</svg>
