<svg width="46" height="45" viewBox="0 0 46 45" fill="none" xmlns="http://www.w3.org/2000/svg">
<ellipse cx="22.5714" cy="22.5" rx="22.5714" ry="22.5" fill="url(#paint0_linear)"/>
<path d="M32.4466 19.6875H27.4081L22.7748 11.6042C22.713 11.4966 22.6238 11.4071 22.5162 11.3449C22.4085 11.2827 22.2864 11.25 22.162 11.25H19.2744C18.8058 11.25 18.4677 11.6969 18.5964 12.146L20.7579 19.6875H16.2233L14.3188 17.1562C14.1857 16.9792 13.9763 16.875 13.7545 16.875H11.9916C11.5326 16.875 11.1958 17.3048 11.3074 17.7486L12.6965 22.5L11.3074 27.2514C11.1958 27.6952 11.5326 28.125 11.9916 28.125H13.7545C13.9767 28.125 14.1857 28.0208 14.3188 27.8438L16.2233 25.3125H20.7579L18.5964 32.8535C18.4677 33.3026 18.8058 33.75 19.2744 33.75H22.162C22.415 33.75 22.6487 33.6146 22.7743 33.3958L27.4081 25.3125H32.4466C34.005 25.3125 36.6787 24.0535 36.6787 22.5C36.6787 20.9465 34.005 19.6875 32.4466 19.6875Z" fill="white"/>
<defs>
<linearGradient id="paint0_linear" x1="22.5714" y1="0" x2="22.5714" y2="45" gradientUnits="userSpaceOnUse">
<stop stop-color="#F47E16"/>
<stop offset="1" stop-color="#F7B512"/>
</linearGradient>
</defs>
</svg>
