<svg width="46" height="45" viewBox="0 0 46 45" fill="none" xmlns="http://www.w3.org/2000/svg">
<ellipse cx="22.5714" cy="22.5" rx="22.5714" ry="22.5" fill="url(#paint0_linear)"/>
<path d="M33.1699 27.125H32.4824V22.3125C32.4824 21.9327 32.1748 21.625 31.7949 21.625H31.1074V18.1875C31.1074 17.8077 30.7998 17.5 30.4199 17.5H29.7324V12.6875C29.7324 12.3077 29.4248 12 29.0449 12C28.6651 12 28.3574 12.3077 28.3574 12.6875V13.375H25.6074V12.6875C25.6074 12.3077 25.2998 12 24.9199 12C24.5401 12 24.2324 12.3077 24.2324 12.6875V13.375H21.4824V12.6875C21.4824 12.3077 21.1748 12 20.7949 12C20.4151 12 20.1074 12.3077 20.1074 12.6875V13.375H17.3574V12.6875C17.3574 12.3077 17.0498 12 16.6699 12C16.2901 12 15.9824 12.3077 15.9824 12.6875V17.5H15.2949C14.9151 17.5 14.6074 17.8077 14.6074 18.1875V21.625H13.9199C13.5401 21.625 13.2324 21.9327 13.2324 22.3125V27.125H12.5449C12.1651 27.125 11.8574 27.4327 11.8574 27.8125V33.3125C11.8574 33.6923 12.1651 34 12.5449 34H15.9824V27.125H17.3574V21.625H18.7324V17.5H20.1074V21.625H18.7324V27.125H17.3574V34H20.7949V30.5625C20.7949 30.1827 21.1026 29.875 21.4824 29.875H24.2324C24.6123 29.875 24.9199 30.1827 24.9199 30.5625V34H28.3574V27.125H26.9824V21.625H25.6074V17.5H26.9824V21.625H28.3574V27.125H29.7324V34H33.1699C33.5498 34 33.8574 33.6923 33.8574 33.3125V27.8125C33.8574 27.4327 33.5498 27.125 33.1699 27.125ZM21.4824 27.125V24.375C21.4824 23.9952 21.7901 23.6875 22.1699 23.6875H23.5449C23.9248 23.6875 24.2324 23.9952 24.2324 24.375V27.125H21.4824ZM21.8262 21.625V19.5625C21.8262 19.1827 22.1338 18.875 22.5137 18.875H23.2012C23.581 18.875 23.8887 19.1827 23.8887 19.5625V21.625H21.8262Z" fill="white"/>
<defs>
<linearGradient id="paint0_linear" x1="22.5714" y1="0" x2="22.5714" y2="45" gradientUnits="userSpaceOnUse">
<stop stop-color="#F47E16"/>
<stop offset="1" stop-color="#F7B512"/>
</linearGradient>
</defs>
</svg>
