<svg width="36" height="37" viewBox="0 0 36 37" fill="none" xmlns="http://www.w3.org/2000/svg">
<path d="M18 0.0571289C8.05921 0.0571289 0 8.1073 0 18.0378C0 27.9682 8.05921 36.0184 18 36.0184C27.9408 36.0184 36 27.9682 36 18.0378C36 8.1073 27.9408 0.0571289 18 0.0571289ZM27.1306 19.9824C27.9695 20.801 28.8571 21.5713 29.6102 22.4745C29.9439 22.874 30.2584 23.2872 30.4978 23.7518C30.8396 24.4144 30.5309 25.141 29.9373 25.1803L26.2496 25.1796C25.2972 25.2583 24.5393 24.8746 23.9003 24.2242C23.3902 23.7058 22.917 23.1522 22.4257 22.6162C22.225 22.3962 22.0136 22.189 21.7617 22.0261C21.259 21.6994 20.8222 21.7994 20.5342 22.3241C20.2407 22.8579 20.1736 23.4494 20.1456 24.0436C20.1055 24.9122 19.8433 25.1391 18.9708 25.18C17.1065 25.2672 15.3377 24.9846 13.6936 24.0458C12.2433 23.2177 11.1208 22.0489 10.1426 20.7256C8.23783 18.1459 6.77905 15.3146 5.46832 12.4021C5.17332 11.7461 5.38914 11.3951 6.11355 11.3815C7.31711 11.3583 8.52067 11.3613 9.72423 11.3804C10.2141 11.3881 10.5381 11.6681 10.7263 12.1298C11.3767 13.7283 12.1741 15.2492 13.1732 16.6596C13.4395 17.0353 13.7113 17.4098 14.0984 17.675C14.5256 17.9679 14.8512 17.8711 15.0526 17.3947C15.1815 17.0919 15.2371 16.7682 15.2651 16.4437C15.3609 15.3323 15.3723 14.2213 15.2065 13.1143C15.1034 12.4215 14.7134 11.9742 14.0221 11.8432C13.6701 11.7766 13.7216 11.6464 13.8929 11.4455C14.1901 11.0982 14.4685 10.8834 15.025 10.8834L19.1914 10.8827C19.8481 11.0114 19.9954 11.3057 20.0845 11.9665L20.0882 16.5916C20.0804 16.8473 20.2167 17.6051 20.6763 17.7725C21.0446 17.8939 21.2877 17.5989 21.5079 17.366C22.5071 16.3068 23.219 15.0567 23.8565 13.7629C24.1379 13.1923 24.3806 12.6018 24.6163 12.0102C24.7916 11.5728 25.0641 11.3576 25.5583 11.365L29.5705 11.3698C29.6887 11.3698 29.8087 11.3709 29.9259 11.3911C30.602 11.5066 30.7873 11.7972 30.5781 12.4561C30.2488 13.4914 29.6091 14.3537 28.9838 15.2183C28.3135 16.1439 27.5986 17.0371 26.935 17.9668C26.3251 18.8166 26.3734 19.2444 27.1306 19.9824Z" fill="#7FB1D8" fill-opacity="0.41"/>
</svg>
